<svg xmlns="http://www.w3.org/2000/svg" viewBox="0 0 1600 1000" preserveAspectRatio="xMidYMid slice">
  <defs>
    <pattern id="sGrid" width="40" height="40" patternUnits="userSpaceOnUse">
      <path d="M40 0H0V40" fill="none" stroke="rgba(245,245,242,0.04)" stroke-width="1"></path>
    </pattern>
    <linearGradient id="sBg" x1="0" y1="0" x2="1" y2="1">
      <stop offset="0" stop-color="#080c12"></stop>
      <stop offset="1" stop-color="#05070b"></stop>
    </linearGradient>
  </defs>
  <rect width="1600" height="1000" fill="url(#sBg)"></rect>
  <rect width="1600" height="1000" fill="url(#sGrid)"></rect>

  <rect x="70" y="70" width="1460" height="860" fill="#0a0e15" stroke="rgba(245,245,242,0.1)"></rect>

  <rect x="70" y="70" width="260" height="860" fill="#070a10"></rect>
  <text x="102" y="122" font-family="'Space Grotesk', sans-serif" font-size="20" fill="#F5F5F2" font-weight="500">MySolusy</text>
  <rect x="94" y="160" width="212" height="40" fill="oklch(0.7 0.16 235)" fill-opacity="0.12"></rect>
  <rect x="94" y="160" width="3" height="40" fill="oklch(0.7 0.16 235)"></rect>
  <text x="118" y="186" font-family="'Space Grotesk', sans-serif" font-size="14" fill="#F5F5F2">Dashboard</text>
  <text x="118" y="236" font-family="'Space Grotesk', sans-serif" font-size="14" fill="#6b7588">HR &amp; People</text>
  <text x="118" y="282" font-family="'Space Grotesk', sans-serif" font-size="14" fill="#6b7588">Accounting</text>
  <text x="118" y="328" font-family="'Space Grotesk', sans-serif" font-size="14" fill="#6b7588">Sales</text>
  <text x="118" y="374" font-family="'Space Grotesk', sans-serif" font-size="14" fill="#6b7588">Products</text>
  <line x1="94" y1="410" x2="306" y2="410" stroke="rgba(245,245,242,0.08)"></line>
  <text x="118" y="450" font-family="'Space Grotesk', sans-serif" font-size="14" fill="#6b7588">Settings</text>

  <text x="380" y="130" font-family="monospace" font-size="11" fill="#6b7588" letter-spacing="2">WORKSPACE OVERVIEW</text>
  <text x="380" y="180" font-family="'Space Grotesk', sans-serif" font-size="44" font-weight="500" fill="#F5F5F2" letter-spacing="-1">Good morning, Amina</text>

  <g transform="translate(380, 220)">
    <rect width="340" height="150" fill="#070a10" stroke="rgba(245,245,242,0.08)"></rect>
    <text x="24" y="40" font-family="monospace" font-size="10" fill="#6b7588" letter-spacing="2">MONTHLY REVENUE</text>
    <text x="24" y="96" font-family="'Space Grotesk', sans-serif" font-size="40" fill="#F5F5F2" font-weight="500">$48,210</text>
    <text x="24" y="126" font-family="monospace" font-size="11" fill="oklch(0.75 0.17 155)">+12.4% vs last month</text>
  </g>
  <g transform="translate(748, 220)">
    <rect width="340" height="150" fill="#070a10" stroke="rgba(245,245,242,0.08)"></rect>
    <text x="24" y="40" font-family="monospace" font-size="10" fill="#6b7588" letter-spacing="2">HEADCOUNT</text>
    <text x="24" y="96" font-family="'Space Grotesk', sans-serif" font-size="40" fill="#F5F5F2" font-weight="500">64</text>
    <text x="24" y="126" font-family="monospace" font-size="11" fill="#6b7588">3 open roles</text>
  </g>
  <g transform="translate(1116, 220)">
    <rect width="340" height="150" fill="#070a10" stroke="rgba(245,245,242,0.08)"></rect>
    <text x="24" y="40" font-family="monospace" font-size="10" fill="#6b7588" letter-spacing="2">INVOICES DUE</text>
    <text x="24" y="96" font-family="'Space Grotesk', sans-serif" font-size="40" fill="#F5F5F2" font-weight="500">12</text>
    <text x="24" y="126" font-family="monospace" font-size="11" fill="oklch(0.78 0.16 75)">4 overdue</text>
  </g>

  <g transform="translate(380, 400)">
    <rect width="708" height="380" fill="#070a10" stroke="rgba(245,245,242,0.08)"></rect>
    <text x="24" y="40" font-family="monospace" font-size="10" fill="#6b7588" letter-spacing="2">CASH FLOW - LTM</text>

    <line x1="24" y1="120" x2="684" y2="120" stroke="rgba(245,245,242,0.06)"></line>
    <line x1="24" y1="200" x2="684" y2="200" stroke="rgba(245,245,242,0.06)"></line>
    <line x1="24" y1="280" x2="684" y2="280" stroke="rgba(245,245,242,0.06)"></line>

    <rect x="60" y="230" width="34" height="110" fill="oklch(0.7 0.16 235)" fill-opacity="0.5"></rect>
    <rect x="130" y="196" width="34" height="144" fill="oklch(0.7 0.16 235)" fill-opacity="0.5"></rect>
    <rect x="200" y="210" width="34" height="130" fill="oklch(0.7 0.16 235)" fill-opacity="0.5"></rect>
    <rect x="270" y="160" width="34" height="180" fill="oklch(0.7 0.16 235)" fill-opacity="0.7"></rect>
    <rect x="340" y="180" width="34" height="160" fill="oklch(0.7 0.16 235)" fill-opacity="0.5"></rect>
    <rect x="410" y="132" width="34" height="208" fill="oklch(0.7 0.16 235)" fill-opacity="0.7"></rect>
    <rect x="480" y="150" width="34" height="190" fill="oklch(0.7 0.16 235)" fill-opacity="0.5"></rect>
    <rect x="550" y="100" width="34" height="240" fill="oklch(0.7 0.16 235)"></rect>
    <rect x="620" y="126" width="34" height="214" fill="oklch(0.7 0.16 235)" fill-opacity="0.7"></rect>

    <text x="24" y="368" font-family="monospace" font-size="10" fill="#6b7588">JAN</text>
    <text x="330" y="368" font-family="monospace" font-size="10" fill="#6b7588">JUN</text>
    <text x="640" y="368" font-family="monospace" font-size="10" fill="#6b7588">DEC</text>
  </g>

  <g transform="translate(1116, 400)">
    <rect width="340" height="380" fill="#070a10" stroke="rgba(245,245,242,0.08)"></rect>
    <text x="24" y="40" font-family="monospace" font-size="10" fill="#6b7588" letter-spacing="2">MODULES</text>
    <rect x="24" y="64" width="292" height="52" fill="#0d121b"></rect>
    <text x="44" y="96" font-family="'Space Grotesk', sans-serif" font-size="14" fill="#F5F5F2">HRM</text>
    <rect x="24" y="128" width="292" height="52" fill="#0d121b"></rect>
    <text x="44" y="160" font-family="'Space Grotesk', sans-serif" font-size="14" fill="#F5F5F2">Accounting</text>
    <rect x="24" y="192" width="292" height="52" fill="#0d121b"></rect>
    <text x="44" y="224" font-family="'Space Grotesk', sans-serif" font-size="14" fill="#F5F5F2">Sales CRM</text>
    <rect x="24" y="256" width="292" height="52" fill="#0d121b"></rect>
    <text x="44" y="288" font-family="'Space Grotesk', sans-serif" font-size="14" fill="#F5F5F2">Inventory</text>
    <text x="24" y="346" font-family="monospace" font-size="10" fill="#6b7588" letter-spacing="2">24/7 SUPPORT INCLUDED</text>
  </g>

  <line x1="70" y1="850" x2="1530" y2="850" stroke="rgba(245,245,242,0.08)"></line>
  <text x="380" y="890" font-family="monospace" font-size="11" fill="#6b7588" letter-spacing="2">04 - MYSOLUSY</text>
  <text x="1380" y="890" font-family="monospace" font-size="11" fill="#6b7588" letter-spacing="2">2025</text>
</svg>
