<svg xmlns="http://www.w3.org/2000/svg" viewBox="0 0 1600 1000" preserveAspectRatio="xMidYMid slice">
  <defs>
    <pattern id="hGrid" width="40" height="40" patternUnits="userSpaceOnUse">
      <path d="M40 0H0V40" fill="none" stroke="rgba(245,245,242,0.04)" stroke-width="1"></path>
    </pattern>
  </defs>
  <rect width="1600" height="1000" fill="#08090b"></rect>
  <rect width="1600" height="1000" fill="url(#hGrid)"></rect>

  
  <rect x="0" y="0" width="280" height="1000" fill="#0c0e12" stroke="rgba(245,245,242,0.06)"></rect>
  <text x="40" y="60" font-family="&#39;Space Grotesk&#39;, sans-serif" font-size="18" fill="#F5F5F2" font-weight="600">Halcyon</text>
  <rect x="28" y="100" width="224" height="40" fill="#141820" rx="2"></rect>
  <text x="44" y="126" font-family="&#39;Space Grotesk&#39;, sans-serif" font-size="13" fill="#F5F5F2">Triage queue</text>
  <text x="224" y="126" font-family="monospace" font-size="10" fill="oklch(0.88 0.22 142)" text-anchor="end">12</text>

  <text x="44" y="176" font-family="&#39;Space Grotesk&#39;, sans-serif" font-size="13" fill="#6b7588">Agents</text>
  <text x="44" y="212" font-family="&#39;Space Grotesk&#39;, sans-serif" font-size="13" fill="#6b7588">Patients</text>
  <text x="44" y="248" font-family="&#39;Space Grotesk&#39;, sans-serif" font-size="13" fill="#6b7588">Protocols</text>
  <text x="44" y="284" font-family="&#39;Space Grotesk&#39;, sans-serif" font-size="13" fill="#6b7588">Audit log</text>

  
  <rect x="280" y="0" width="1320" height="72" fill="#0a0c10" stroke="rgba(245,245,242,0.06)"></rect>
  <text x="320" y="44" font-family="&#39;Space Grotesk&#39;, sans-serif" font-size="16" fill="#F5F5F2" font-weight="500">Triage queue</text>
  <text x="320" y="64" font-family="monospace" font-size="10" fill="#6b7588" letter-spacing="1">12 OPEN · 3 ESCALATED · 47 RESOLVED TODAY</text>
  <circle cx="1540" cy="36" r="14" fill="#1a1d24"></circle>
  <text x="1540" y="41" font-family="&#39;Space Grotesk&#39;, sans-serif" font-size="11" fill="#F5F5F2" text-anchor="middle">LM</text>

  
  <g transform="translate(320, 110)">
    
    <text x="0" y="0" font-family="monospace" font-size="10" fill="#6b7588" letter-spacing="2">AGENT ROUTING · LIVE</text>

    <g transform="translate(0, 30)">
      
      <rect x="0" y="60" width="180" height="120" fill="#0f1218" stroke="rgba(245,245,242,0.08)"></rect>
      <text x="16" y="30" font-family="monospace" font-size="10" fill="#6b7588">INTAKE</text>
      <text x="16" y="96" font-family="&#39;Space Grotesk&#39;, sans-serif" font-size="28" fill="#F5F5F2" font-weight="500">147</text>
      <text x="16" y="120" font-family="monospace" font-size="10" fill="#6b7588">LAST HOUR</text>
      <text x="16" y="160" font-family="monospace" font-size="10" fill="oklch(0.88 0.22 142)">▲ +23% vs avg</text>

      
      <g transform="translate(300, 0)">
        <rect x="0" y="0" width="280" height="280" fill="#0f1218" stroke="oklch(0.88 0.22 142)" stroke-opacity="0.3"></rect>
        <text x="20" y="30" font-family="monospace" font-size="10" fill="oklch(0.88 0.22 142)">● CLAUDE · TRIAGE AGENT</text>
        <text x="20" y="70" font-family="&#39;Space Grotesk&#39;, sans-serif" font-size="18" fill="#F5F5F2" font-weight="500">Analyzing symptoms…</text>

        <rect x="20" y="100" width="240" height="6" fill="#1a1d24"></rect>
        <rect x="20" y="100" width="180" height="6" fill="oklch(0.88 0.22 142)"></rect>

        <text x="20" y="150" font-family="monospace" font-size="10" fill="#6b7588">CLASSIFIERS</text>

        <line x1="20" y1="168" x2="260" y2="168" stroke="rgba(245,245,242,0.06)"></line>
        <text x="20" y="190" font-family="&#39;Space Grotesk&#39;, sans-serif" font-size="12" fill="#F5F5F2">Urgency</text>
        <text x="260" y="190" font-family="&#39;Space Grotesk&#39;, sans-serif" font-size="12" fill="oklch(0.88 0.22 142)" text-anchor="end">HIGH</text>

        <line x1="20" y1="208" x2="260" y2="208" stroke="rgba(245,245,242,0.06)"></line>
        <text x="20" y="230" font-family="&#39;Space Grotesk&#39;, sans-serif" font-size="12" fill="#F5F5F2">Specialty</text>
        <text x="260" y="230" font-family="&#39;Space Grotesk&#39;, sans-serif" font-size="12" fill="#F5F5F2" text-anchor="end">Cardiology</text>

        <line x1="20" y1="248" x2="260" y2="248" stroke="rgba(245,245,242,0.06)"></line>
        <text x="20" y="270" font-family="&#39;Space Grotesk&#39;, sans-serif" font-size="12" fill="#F5F5F2">Confidence</text>
        <text x="260" y="270" font-family="&#39;Space Grotesk&#39;, sans-serif" font-size="12" fill="#F5F5F2" text-anchor="end">0.94</text>
      </g>

      
      <g transform="translate(700, 20)">
        <rect x="0" y="0" width="220" height="72" fill="#0f1218" stroke="oklch(0.88 0.22 142)" stroke-opacity="0.5"></rect>
        <text x="16" y="28" font-family="&#39;Space Grotesk&#39;, sans-serif" font-size="14" fill="#F5F5F2" font-weight="500">Dr. Kapoor</text>
        <text x="16" y="48" font-family="monospace" font-size="10" fill="#6b7588">CARDIOLOGY · ON‑CALL</text>
        <circle cx="200" cy="16" r="5" fill="oklch(0.88 0.22 142)"></circle>
      </g>
      <g transform="translate(700, 104)">
        <rect x="0" y="0" width="220" height="72" fill="#0f1218" stroke="rgba(245,245,242,0.06)"></rect>
        <text x="16" y="28" font-family="&#39;Space Grotesk&#39;, sans-serif" font-size="14" fill="#6b7588" font-weight="500">Dr. Morales</text>
        <text x="16" y="48" font-family="monospace" font-size="10" fill="#6b7588">CARDIOLOGY · BUSY</text>
        <circle cx="200" cy="16" r="5" fill="#6b7588"></circle>
      </g>
      <g transform="translate(700, 208)">
        <rect x="0" y="0" width="220" height="72" fill="#0f1218" stroke="rgba(245,245,242,0.06)"></rect>
        <text x="16" y="28" font-family="&#39;Space Grotesk&#39;, sans-serif" font-size="14" fill="#6b7588" font-weight="500">Dr. Okafor</text>
        <text x="16" y="48" font-family="monospace" font-size="10" fill="#6b7588">GENERAL · AVAILABLE</text>
        <circle cx="200" cy="16" r="5" fill="#6b7588"></circle>
      </g>

      
      <path d="M 180 120 Q 240 120 300 140" stroke="rgba(245,245,242,0.3)" stroke-width="1" fill="none" stroke-dasharray="3 3"></path>
      <path d="M 580 100 Q 640 80 700 56" stroke="oklch(0.88 0.22 142)" stroke-width="1.5" fill="none"></path>
      <path d="M 580 140 Q 640 140 700 140" stroke="rgba(245,245,242,0.15)" stroke-width="1" fill="none" stroke-dasharray="3 3"></path>
      <path d="M 580 180 Q 640 200 700 244" stroke="rgba(245,245,242,0.15)" stroke-width="1" fill="none" stroke-dasharray="3 3"></path>
    </g>
  </g>

  
  <g transform="translate(320, 520)">
    <text x="0" y="0" font-family="monospace" font-size="10" fill="#6b7588" letter-spacing="2">STREAM · LAST 8 ROUTES</text>

    <g font-family="monospace" font-size="11" fill="#F5F5F2">
      <g transform="translate(0, 36)"><text fill="#6b7588">14:23:07</text><text x="110">PT‑8842</text><text x="220">CHEST_PAIN</text><text x="380" fill="oklch(0.88 0.22 142)">→ KAPOOR</text><text x="560" fill="#6b7588">0.94</text></g>
      <g transform="translate(0, 64)"><text fill="#6b7588">14:22:51</text><text x="110">PT‑8841</text><text x="220">RASH_PEDIATRIC</text><text x="380" fill="#F5F5F2">→ VOSS</text><text x="560" fill="#6b7588">0.88</text></g>
      <g transform="translate(0, 92)"><text fill="#6b7588">14:22:33</text><text x="110">PT‑8840</text><text x="220">LACERATION</text><text x="380" fill="#F5F5F2">→ OKAFOR</text><text x="560" fill="#6b7588">0.97</text></g>
      <g transform="translate(0, 120)"><text fill="#6b7588">14:22:18</text><text x="110">PT‑8839</text><text x="220">MIGRAINE</text><text x="380" fill="#F5F5F2">→ TRIAGE_NURSE</text><text x="560" fill="#6b7588">0.82</text></g>
      <g transform="translate(0, 148)"><text fill="#6b7588">14:21:54</text><text x="110">PT‑8838</text><text x="220">DYSPNEA</text><text x="380" fill="oklch(0.88 0.22 142)">→ KAPOOR</text><text x="560" fill="#6b7588">0.91</text></g>
      <g transform="translate(0, 176)"><text fill="#6b7588">14:21:30</text><text x="110">PT‑8837</text><text x="220">ABD_PAIN</text><text x="380" fill="#F5F5F2">→ MORALES</text><text x="560" fill="#6b7588">0.86</text></g>
    </g>
  </g>
</svg>